<?xml version="1.0" encoding="UTF-8"?>
<svg id="Layer_1" data-name="Layer 1" xmlns="http://www.w3.org/2000/svg" viewBox="0 0 363.72 379.31">
  <defs>
    <style>
      .cls-1 {
        fill: #fff;
      }
    </style>
  </defs>
  <path class="cls-1" d="M129.81,363.22c-1.23,0-2.61-.25-4.21-.77-7.37-2.38-8.1-11.23-8.8-19.78-.22-2.7-.43-5.25-.85-7.53-4.35-23.45-21.77-38.61-44.37-38.61-1.35,0-2.74.06-4.12.17-2.91.23-6.22,1-9.72,1.81-4.54,1.05-9.23,2.13-13.4,2.13-3.63,0-6.33-.84-8.27-2.57-6.84-6.1-1.23-15.45,3.72-23.7,1.53-2.56,2.98-4.97,3.95-7.13,10.02-22.39,2.51-46.53-18.27-58.72-2.36-1.39-5.24-2.6-8.29-3.88-11.36-4.78-19.2-8.89-16.72-18.33,1.35-5.11,10.24-9.01,17.39-12.15,2.97-1.31,5.78-2.54,7.87-3.77,20.03-11.78,27.74-35.12,18.76-56.78-1.09-2.63-2.79-5.47-4.58-8.47-4.49-7.51-9.58-16.03-5.35-22.38,1.89-2.83,5.02-4.15,9.85-4.15,4.49,0,9.6,1.14,14.54,2.25,4.2.94,8.17,1.83,11.41,1.91.41.01.82.02,1.23.02,21.87,0,40.13-15.85,44.39-38.54.49-2.6.72-5.44.94-8.18.69-8.64,1.35-16.81,9.37-19.98h5.06c5.32,2.39,9.14,6.8,13.19,11.47,2.45,2.83,4.99,5.75,7.91,8.22,8.6,7.27,18.78,11.11,29.45,11.11h0c10.67,0,20.85-3.84,29.45-11.11,2.92-2.47,5.46-5.4,7.91-8.22,4.05-4.66,7.87-9.07,13.19-11.47h5.06c8.02,3.17,8.68,11.37,9.38,20.04.22,2.72.45,5.52.92,8.11,4.18,22.7,22.44,38.55,44.4,38.55.41,0,.81,0,1.22-.02,3.24-.08,7.21-.97,11.41-1.91,4.94-1.11,10.05-2.25,14.54-2.25,4.83,0,7.97,1.32,9.85,4.15,4.23,6.35-.86,14.87-5.35,22.38-1.8,3-3.49,5.84-4.58,8.47-8.88,21.41-1.37,44.65,18.28,56.52,2.94,1.77,6.26,3.18,9.47,4.54,7.05,2.99,13.72,5.82,16.71,12.16v5.06c-2.52,6.63-9.39,9.49-16.65,12.52-2.82,1.18-5.74,2.39-8.31,3.84-21.21,11.97-28.93,36.22-18.77,58.99,1,2.23,2.47,4.68,4.03,7.27,4.64,7.7,9.9,16.42,4.57,22.64-2.04,2.38-4.97,3.48-9.23,3.48s-8.91-1.09-13.46-2.15c-3.47-.8-6.75-1.57-9.62-1.8-1.38-.11-2.76-.17-4.12-.17-22.6,0-40.02,15.16-44.37,38.61-.4,2.14-.62,4.67-.87,7.35-.59,6.58-1.26,14.04-4.58,17.39-2.08,2.1-4.53,3.17-7.27,3.17-2.12,0-4.38-.67-6.56-1.93-2.5-1.45-6.25-5.7-9.88-9.81-3.06-3.47-5.96-6.74-8.42-8.78-7.95-6.57-18.12-10.19-28.64-10.19-5.11,0-10.09.85-14.82,2.54-9.34,3.33-16.04,10.2-22.51,16.84-1.25,1.28-2.49,2.56-3.75,3.81-.88.87-1.67,1.73-2.43,2.56-2.75,2.98-4.74,5.14-8.25,5.14ZM71.01,282.1c28.8,0,52.98,19.72,58.8,47.96.07.32.16,1.31.26,2.27.62,6.28,1.03,9.29,3.4,9.29h.84l.52-.66c11.31-14.56,28.47-22.9,47.07-22.9s35.73,8.35,47.02,22.9l.5.65.82.02c2.29,0,2.68-2.62,3.41-9.08.12-1.07.23-2.08.31-2.46,2.96-14.19,10.27-26.28,21.13-34.97,10.48-8.38,23.84-13,37.61-13,5.44,0,10.95.71,16.37,2.1l2.96.76-.89-2.92c-.87-2.84-2.25-5.43-3.58-7.94-1.1-2.08-2.15-4.04-2.92-6.12-5.47-14.8-4.82-30.85,1.85-45.2,6.85-14.75,19.08-25.93,34.43-31.48l4.25-1.54-4.2-1.67c-32.17-12.81-47.44-45.08-36.32-76.72.92-2.61,2.13-4.99,3.42-7.51,1.04-2.04,2.12-4.15,3.01-6.38l1.25-3.1-3.24.79c-5.24,1.28-10.6,1.92-15.93,1.92-22.06,0-41.53-10.87-52.1-29.08-4.7-8.09-5.66-13.63-7-21.31-.31-1.79-.64-3.69-1.05-5.76-.2-1.02-.48-2.01-1.78-2.89l-1.31-.89-.99,1.24c-11.61,14.48-28.77,22.78-47.06,22.78h0c-18.29,0-35.44-8.3-47.06-22.78l-.99-1.24-1.31.89c-1.3.88-1.58,1.87-1.78,2.89-.4,2.07-.73,3.97-1.05,5.76-1.34,7.67-2.31,13.21-7,21.3-10.57,18.21-30.04,29.08-52.1,29.08-5.33,0-10.69-.65-15.93-1.92l-3.25-.79,1.25,3.1c.9,2.23,1.97,4.33,3.01,6.37,1.29,2.53,2.5,4.91,3.43,7.52,5.46,15.46,4.67,31.74-2.21,45.86-6.74,13.84-18.86,24.8-34.11,30.86l-4.22,1.68,4.27,1.54c15.32,5.51,27.53,16.66,34.39,31.4,6.7,14.38,7.37,30.47,1.89,45.28-.77,2.08-1.81,4.04-2.92,6.11-1.33,2.51-2.71,5.1-3.58,7.94l-.89,2.93,2.97-.77c5.4-1.4,10.89-2.11,16.33-2.11Z"/>
  <path class="cls-1" d="M181.87,291.58c-56.25,0-102.02-45.76-102.02-102.02s45.76-102.02,102.02-102.02,102.02,45.77,102.02,102.02-45.76,102.02-102.02,102.02ZM181.87,102.02c-48.28,0-87.56,39.28-87.56,87.56s39.28,87.56,87.56,87.56,87.56-39.28,87.56-87.56-39.28-87.56-87.56-87.56Z"/>
</svg>