<?xml version="1.0" encoding="UTF-8"?>
<svg id="Layer_1" data-name="Layer 1" xmlns="http://www.w3.org/2000/svg" viewBox="0 0 363.72 379.31">
  <defs>
    <style>
      .cls-1 {
        fill: #fff;
      }
    </style>
  </defs>
  <path class="cls-1" d="M1.31,268.7c1.21-10.15,7.74-22.8,12.42-31.94,27.47-53.66,64.07-114.45,95.68-166.25,11.38-18.65,18.41-32.13,38.35-43.32,71.14-39.94,149.13,36.48,114.11,108.63l-45.28,79.33c26.44-2.46,54.34-2.16,80.7,1.62,17.38,2.49,61.11,10.61,64.09,31.63,2.24,15.79,1.79,60.96.2,77.43-1.01,10.49-8.8,17.07-17.83,21.59-41.77,20.93-156.13,22.31-195.16-4.29-2.23-1.52-3.97-3.49-5.87-5.37-42.94,43.98-117.18,27.84-137.24-30.26-1.11-3.22-3.82-11.98-4.16-14.85-.66-5.49-.66-18.46,0-23.95ZM183.97,30.93c-12.55.59-28.66,7.39-38.42,15.19-16.81,13.44-42.71,63.93-54.45,84.96-1.61,2.88-9.89,16.77-9.51,18.42l115.79,66.85c2.24-.42,6.14-8.23,7.65-10.64,13.12-20.93,48.51-78.18,50.78-99.9,4.35-41.69-30.43-76.85-71.85-74.89ZM175.77,222.19l-102.7-58.55c-14.38,25.7-31.81,51.29-45.27,77.35-10.95,21.18-16.02,36.12-8.91,60.13,15.68,52.97,88.08,64.21,118.87,18.98,1.68-22.68-2.12-48.17-.04-70.48,1.58-16.98,24.17-23.29,38.05-27.42ZM279.88,229.26c-35.19-2.07-80.5-2.94-113.51,11-17.68,7.47-19.42,11.99-1.39,20.22,8.91,4.07,18.39,6.47,28.07,7.93l86.83-39.16ZM220.8,272.91c29.45.06,58.51,1.27,87.52-4.63,6.34-1.29,40.39-10.13,39-18.41-9.66-10.31-26.27-13.93-39.87-16.38l-86.65,39.42ZM347.43,270.11c-13.27,7.14-28.48,11.15-43.32,13.68-33.72,5.73-75.28,5.69-108.95.02-14.76-2.48-30.16-6.47-43.3-13.7v57.06c9.26,9.35,25,13.01,37.73,15.76,32.46,7.01,70.54,7.3,103.48,3.06,8.65-1.11,54.37-10.08,54.37-20.23v-55.65Z"/>
  <path class="cls-1" d="M203.89,49.11c0-3.98-3.22-7.2-7.19-7.2s-7.19,3.22-7.19,7.2,3.22,7.2,7.19,7.2,7.19-3.22,7.19-7.2ZM172.61,43.59c-10.52,1.48-35.03,19.01-34.93,30,.03,3.45,3,7,6.41,7.15,5.63.25,13.53-12.89,19.14-16.93,5.48-3.95,18.74-6.7,19.62-12.89,1.04-7.32-4.42-8.16-10.24-7.34Z"/>
  <path class="cls-1" d="M172.61,43.59c5.82-.82,11.28.02,10.24,7.34-.88,6.18-14.14,8.93-19.62,12.89-5.61,4.04-13.51,17.18-19.14,16.93-3.42-.15-6.39-3.7-6.41-7.15-.09-11,24.41-28.52,34.93-30Z"/>
  <ellipse class="cls-1" cx="196.7" cy="49.11" rx="7.19" ry="7.2"/>
</svg>