<?xml version="1.0" encoding="UTF-8"?>
<svg id="Layer_1" data-name="Layer 1" xmlns="http://www.w3.org/2000/svg" viewBox="0 0 363.72 379.31">
  <defs>
    <style>
      .cls-1 {
        fill: #fff;
      }
    </style>
  </defs>
  <path class="cls-1" d="M347.57,246.46c-4.74-2.84-17.95-8.05-25.31-8.05-.8,0-1.53.07-2.16.19-2.6.5-4.74,2.72-5.46,5.65-.73,2.97.15,5.87,2.3,7.59,1.55,1.23,4.94,2.16,10.35,3.57,4.01,1.05,8.54,2.24,10.9,3.46,5.64,2.91,9.56,7.75,10,12.33.34,3.43-1.23,6.55-4.66,9.25-9.48,7.49-38.76,11.29-87.03,11.29-2.2,0-4.23-.01-6.03-.01h-2.04c-3.44-.02-7.33-.12-11.46-.23-4.91-.13-10.48-.27-16.09-.27-18.83,0-42.07,1.47-54.77,12.93-9.87,8.91-13.69,21.88-9.73,33.05.79,2.25,2.07,4.31,3.31,6.29,3.45,5.53,4.75,8.13-.53,11.74-4.1,2.8-14.44,4.14-20.62,4.94-.79.1-1.53.2-2.21.29-16.52,2.23-34.67,3.37-53.94,3.37-16.73,0-33.72-.85-50.48-2.53-4.86-.49-9.84-1.21-14.68-1.93,2.1-9.1,5.24-18.7,9.55-29.24,25.24-1.05,50.03-6.2,73.7-15.34,24.22-9.35,48.58-23.73,74.49-43.97.85-.66,2.03-1.54,3.37-2.55,5.94-4.45,11-8.33,12.81-10.63,2.28-2.9,2.92-5.53,1.9-7.82-1.8-4-8.12-5.28-14.7-5.87,12.07-1.74,22.32-4.27,31.61-7.75,10.76-4.04,15.23-8.52,22.64-15.94l1.15-1.15c10.95-10.94,21.1-22.14,29.36-32.38.45-.57.99-1.19,1.56-1.85,3.48-4.02,8.23-9.51,5.83-14.79-1.86-4.06-8.76-4.44-15.44-4.81-3.15-.17-6.4-.35-7.92-.94l-.07-.03-2.89-.85c7.43-.98,14.96-2.1,22.33-3.71,9.16-2,20.1-4.72,23.46-8.01,2.56-2.51,6.8-9.39,10.21-14.93.93-1.51,1.75-2.84,2.38-3.82,7.9-12.32,19.21-31.14,28.22-50.82.31-.68.71-1.51,1.16-2.44,3.49-7.29,6.57-14.17,5.82-18.09-.66-3.45-3.71-4.89-6.98-5.57,5.62-.63,10.62-1.48,12.58-4.24,1.71-2.4,4.02-9.79,6.05-16.53l.52-1.72c.19-.63.44-1.42.72-2.31,2.2-6.95,4.34-14.02,4.28-17.24-.12-6.51-7.42-8.3-12.26-9.48-.48-.12-.94-.23-1.37-.34-10.78-2.8-22.95-4.22-36.16-4.22-14.16,0-29.07,1.66-43.11,4.81-.51.12-1.11.25-1.77.39-5.87,1.26-11.35,2.54-13.98,4.28-4.81,3.18-10.4,12.67-14.71,20.88.17-.91.31-1.82.39-2.7.35-3.9-.26-6.65-1.87-8.41-1.21-1.33-2.89-2-5-2-3.85,0-8.65,2.3-12.51,4.15-.83.39-1.61.77-2.34,1.1-13.47,6.1-39.05,20.04-51.15,30.58-8.44,7.36-11.89,22.07-14.44,34.81l-2.02-10.84-.22-.34c-1.23-1.87-3.52-2.94-6.29-2.94-1.24,0-2.46.22-3.51.65-1.29.52-4.21,2.99-11.17,9.42l-1.09,1-1.33,1.22c-13.57,12.39-27.61,25.21-33.54,43.22-1.7,5.19-2.91,10.54-3.96,15.83-1.17-3.97-3.8-6.32-7.13-6.32-2.35,0-4.76,1.17-6.98,3.38-9.2,9.19-21.04,26.56-29.69,39.24-1.03,1.52-2.02,2.96-2.94,4.31-20,29.17-44.92,73.32-30.48,119.78,1.6,5.15,4.14,9.85,6.59,14.4.62,1.15,1.24,2.31,1.85,3.47-.83,2.28-1.68,4.55-2.53,6.83-2.7,7.18-5.49,14.6-7.31,22.28-.18.77-.4,1.61-.64,2.49-1.32,4.98-2.96,11.17-.4,15.36,1.17,1.91,3.06,3.15,5.6,3.7,4.53.98,10.77,1.56,16.27,2.07,1.42.14,2.78.26,4.03.39,18.56,1.87,37.05,2.82,54.96,2.82,12.19,0,24.09-.44,35.38-1.32l1.36-.11c15.52-1.2,44.42-3.43,53.62-14.46,8.53-10.22,4.58-18.3,1.1-25.42-3.19-6.52-5.94-12.15-.27-19.54,7.86-10.26,27.4-11.11,37.89-11.57,3.6-.15,7.9-.23,13.15-.23,5.95,0,12.46.09,19.34.2,7.71.11,15.68.22,23.85.22,28.2,0,62.88-1.34,80.92-11.84,9.4-5.47,14.6-13.64,14.66-23,.06-10.07-5.98-19.7-16.15-25.78ZM93.36,176.76c-.07-1.7-.14-3.3-.04-4.56,1.67-21.35,4.4-41.89,19.34-58.35,3.58-3.94,7.61-7.62,11.51-11.18,2-1.82,4.04-3.68,6.04-5.6,2.09,10.56,4.73,21.42,9.72,30.87.19.36.37.72.54,1.07,1.14,2.31,2.56,5.18,6.56,5.68.49.06.98.09,1.43.09,2.2,0,3.99-.7,5.32-2.09,2.99-3.11,2.77-8.7,2.57-13.63-.07-1.7-.13-3.31-.03-4.49,1.16-14.13,5.07-38.47,11.04-47.62,1.93-2.94,10.14-8.11,14.55-10.89.77-.49,1.47-.93,2.06-1.31,4.18-2.69,23.78-14.11,30.87-17.31-1.46,9.36-1.51,19.58-.12,28.51.46,2.98,1.69,10.91,7.58,10.91,1.98,0,4.16-.96,6.66-2.91l.42-.34.2-.51c.64-1.63,1.27-3.28,1.91-4.94,5.44-14.16,11.06-28.8,19.83-40.78.32-.44.62-.86.91-1.28,1.31-1.88,2.26-3.23,4.24-4.03,11.84-4.75,33.65-6.44,48.72-6.44,6.86,0,13.06.31,17.93.9,2.85.35,11.51,1.96,14.69,2.98l-6.59,20.73c-15.19,1.85-29.59,6.83-39.66,13.75-3.13,2.15-6.72,5.09-6.73,8.85-.01,2.52,1.51,4.81,4.65,7l.5.35s1.3.01,1.64.01c3.16,0,6.36-.17,9.46-.33,3.04-.15,6.18-.32,9.24-.32,3.44,0,6.4.21,9.12.65-11.47,24.13-24.87,47.55-39.85,69.67-19.3,7.06-40.31,8.82-60.65,10.51-2.92.25-5.84.49-8.75.75l-.44.04-.38.22c-3.66,2.12-5.5,4.54-5.46,7.17.07,4.87,6.37,8.27,10.96,10.75,9.56,5.16,21.25,8.88,33.25,10.62-5.62,7.08-11.91,14.31-18.34,21.06-.96,1.02-1.91,2.03-2.86,3.04-7.08,7.56-13.76,14.69-23.38,18.18-20.42,7.39-40.17,8.05-63.88,8.13-.45,0-.98-.13-1.54-.26-.72-.18-1.52-.37-2.41-.37-.17,0-.34,0-.51.02-3.26.3-5.84,2.35-6.74,5.37-.95,3.19.21,6.64,2.94,8.8,8.59,6.8,23.84,11.77,35.55,13.85-4.59,4.37-17.55,13.09-22.66,16.53l-.58.4c-26.17,17.63-67.99,37.26-106.87,39.46-.17.01-.41.03-.68.06-.61.05-1.44.12-2.21.12h-.04c43.05-86.73,107.95-153.24,187.78-192.42.76-.38,1.84-.78,2.99-1.21,3.94-1.47,8.85-3.3,10.24-7.15.69-1.9.41-3.97-.83-6.15-1.35-2.36-3.57-3.61-6.42-3.61-3.16,0-6.51,1.48-9.21,2.67-.5.22-.98.43-1.41.61-34.18,14.27-70.16,39.42-104.06,72.73-30.41,29.88-58.2,65.54-78.28,100.45l-13.78,25.2c-7.34-16.8-5.22-37.17-3.18-48.24,5.5-29.83,23.67-54.65,41.24-78.65,3.49-4.77,7.09-9.68,10.54-14.57.69,1.92,1.25,3.89,1.84,5.97.74,2.6,1.5,5.29,2.54,7.89.15.36.31.77.48,1.21,1.86,4.8,4.68,12.05,9.57,12.6.49.05.97.08,1.42.08,2.32,0,4.19-.72,5.55-2.14,2.86-2.99,2.63-8.21,2.43-12.83Z"/>
</svg>